<svg width="25" height="25" viewBox="0 0 25 25" fill="none" xmlns="http://www.w3.org/2000/svg">
<path d="M21.25 0H3.75C1.67893 0 0 1.67893 0 3.75V21.25C0 23.3211 1.67893 25 3.75 25H21.25C23.3211 25 25 23.3211 25 21.25V3.75C25 1.67893 23.3211 0 21.25 0Z" fill="white"/>
<path d="M7.71484 19.0918V12.1582L3.71094 9.08203V17.627C3.71094 18.6035 4.19922 19.0918 5.17578 19.0918" fill="#4285F4"/>
<path d="M7.51953 12.1094L12.5 15.8691L17.4805 12.1094V7.32422L12.5 11.084L7.51953 7.32422" fill="#EA4335"/>
<path d="M17.2852 19.0918V12.1582L21.2891 9.08203V17.627C21.2891 18.6035 20.8008 19.0918 19.8242 19.0918" fill="#34A853"/>
<path d="M3.71094 9.17968L7.71484 12.2558V7.47069L6.25 6.34764C4.93164 5.32225 3.71094 6.34765 3.71094 7.61718" fill="#C5221F"/>
<path d="M21.2891 9.17968L17.2852 12.2558V7.47069L18.75 6.34764C20.0684 5.32225 21.2891 6.34765 21.2891 7.61718" fill="#FBBC04"/>
<path d="M4.93391 19.106H7.73162V12.3117L3.73492 9.31412V17.907C3.73492 18.5705 4.27248 19.106 4.93391 19.106Z" fill="black"/>
<path d="M17.3235 19.106H20.1212C20.7846 19.106 21.3202 18.5684 21.3202 17.907V9.31412L17.3235 12.3117" fill="black"/>
<path d="M17.3235 7.11604V12.3117L21.3202 9.31419V7.71554C21.3202 6.23275 19.6276 5.38744 18.4426 6.27671" fill="black"/>
<path d="M7.73126 12.3116V7.11594L12.5273 10.7129L17.3233 7.11594V12.3116L12.5273 15.9087" fill="black"/>
<path d="M3.73492 7.71554V9.31419L7.73162 12.3117V7.11604L6.61255 6.27671C5.42553 5.38744 3.73492 6.23275 3.73492 7.71554Z" fill="black"/>
</svg>
